<?xml version="1.0" standalone="no"?>
<!DOCTYPE svg PUBLIC "-//W3C//DTD SVG 20010904//EN"
 "http://www.w3.org/TR/2001/REC-SVG-20010904/DTD/svg10.dtd">
<svg version="1.0" xmlns="http://www.w3.org/2000/svg"
 width="1280.000000pt" height="1070.000000pt" viewBox="0 0 1280.000000 1070.000000"
 preserveAspectRatio="xMidYMid meet">
<metadata>
Created by potrace 1.15, written by Peter Selinger 2001-2017
</metadata>
<g transform="translate(0.000000,1070.000000) scale(0.100000,-0.100000)"
fill="#ffffff" stroke="none">
<path d="M1355 9797 c-71 -42 -118 -84 -167 -148 -75 -100 -90 -131 -101 -219
-11 -92 -11 -106 2 -255 15 -179 40 -259 116 -364 52 -71 88 -101 124 -101 32
0 92 60 136 136 l40 68 7 -57 c7 -54 19 -234 38 -587 11 -197 26 -369 40 -465
6 -38 14 -104 20 -145 18 -147 46 -340 60 -430 49 -294 75 -845 75 -1565 0
-575 -21 -1020 -65 -1385 -5 -41 -14 -124 -20 -185 -19 -190 -50 -414 -91
-660 -5 -33 -14 -85 -19 -115 -5 -30 -14 -81 -20 -112 -5 -32 -14 -82 -19
-110 -11 -64 -37 -196 -50 -258 -6 -25 -19 -90 -31 -145 -22 -107 -33 -154
-49 -225 -23 -98 -28 -90 84 -116 55 -13 125 -29 155 -35 30 -6 100 -22 155
-35 56 -13 106 -24 113 -24 9 0 62 98 62 115 0 2 11 28 24 57 52 117 74 202
106 408 6 41 15 95 20 120 11 56 26 165 41 292 14 114 10 111 149 155 177 57
182 58 405 57 l210 -1 122 -46 c159 -60 224 -93 360 -182 171 -113 298 -212
497 -389 123 -110 396 -375 396 -385 0 -3 4 -31 10 -61 62 -362 92 -554 130
-835 6 -44 15 -109 20 -145 16 -112 28 -211 40 -315 6 -55 17 -125 23 -155 13
-54 14 -55 51 -58 20 -2 67 4 102 13 70 17 79 19 333 63 132 23 168 33 181 49
22 27 45 178 37 242 -3 28 -13 79 -21 113 -8 35 -24 108 -36 163 -12 55 -30
136 -40 180 -10 44 -24 103 -30 130 -18 80 -137 553 -159 630 -11 39 -29 102
-41 140 -12 39 -25 84 -30 100 -11 44 -158 486 -169 510 -5 11 -37 92 -72 180
-34 88 -75 188 -91 223 -15 34 -28 65 -28 67 0 10 -201 443 -253 545 -80 157
-241 458 -301 563 -36 63 -66 118 -66 121 0 4 17 4 38 1 108 -17 176 -29 262
-46 52 -10 131 -23 175 -29 184 -26 269 -57 303 -113 37 -59 82 -177 88 -232
6 -48 5 -52 -16 -58 -35 -9 -56 8 -85 68 -27 54 -28 65 -10 135 5 21 1 28 -25
43 -45 27 -74 16 -94 -33 -23 -57 -21 -166 4 -232 25 -67 95 -157 154 -197 37
-26 54 -31 104 -31 70 0 108 17 155 69 38 42 58 94 82 215 9 44 18 82 20 86 2
4 30 12 62 19 32 8 72 17 88 22 17 5 92 25 168 44 255 65 402 103 482 125 44
12 195 50 335 86 140 35 289 73 330 84 41 12 179 47 305 80 127 32 300 77 385
99 85 22 261 67 390 100 228 58 307 79 550 142 312 83 503 129 508 124 11 -11
-29 -139 -110 -349 -117 -308 -120 -317 -121 -361 0 -22 3 -63 8 -92 8 -57 5
-55 120 -83 28 -7 75 -21 106 -31 30 -11 69 -19 85 -19 27 0 31 5 53 63 13 34
27 71 32 82 11 26 92 280 119 375 47 163 54 182 74 195 73 47 323 121 508 151
127 20 348 23 448 5 144 -26 482 -149 645 -237 22 -11 81 -43 130 -69 76 -40
274 -154 352 -201 34 -21 60 -167 125 -692 l12 -102 50 -25 c54 -27 99 -31
187 -16 30 5 90 15 134 21 44 6 92 16 108 22 31 12 31 17 -4 168 -11 47 -24
103 -29 125 -24 107 -94 379 -117 450 -51 166 -96 301 -113 345 -129 324 -263
589 -403 793 -33 48 -58 89 -56 91 2 2 60 18 129 36 218 55 212 54 222 37 74
-132 240 -157 339 -50 53 56 69 101 69 191 0 73 -4 90 -31 144 -57 114 -94
158 -173 209 -122 80 -240 109 -446 109 -135 0 -244 6 -595 31 -486 34 -817
121 -999 261 -47 35 -115 125 -159 207 -54 100 -113 299 -137 456 -39 262 -73
563 -100 895 -14 174 -28 290 -39 345 -6 28 -14 64 -17 80 -27 137 -83 255
-154 325 -37 38 -56 48 -108 59 -53 12 -73 12 -120 1 -77 -18 -89 -25 -149
-83 l-52 -50 -213 7 c-117 3 -328 11 -468 16 -140 5 -383 14 -540 19 -157 6
-413 16 -570 22 -157 5 -402 14 -545 19 -143 5 -381 14 -530 19 -148 6 -403
15 -565 21 -343 12 -745 27 -1085 40 -132 5 -440 16 -685 24 -552 19 -639 22
-970 36 -146 7 -337 15 -425 18 l-159 7 -57 75 c-100 132 -140 161 -239 175
-14 2 -34 -2 -45 -8z m56 -338 c18 -25 41 -118 61 -244 9 -64 8 -75 -11 -117
-11 -26 -21 -50 -21 -53 0 -19 -85 -175 -93 -172 -48 16 -67 348 -31 530 7 32
52 89 67 84 6 -2 19 -14 28 -28z m893 -210 c1005 -19 2623 -54 3422 -74 l271
-7 7 -52 c3 -28 6 -73 6 -99 l0 -48 -507 6 c-280 3 -893 10 -1363 15 -470 5
-1173 12 -1561 15 l-705 6 -13 77 c-6 42 -16 93 -22 113 -15 59 -12 71 13 63
12 -3 216 -10 452 -15z m4611 -100 c215 -6 620 -15 900 -20 281 -5 524 -12
541 -15 29 -5 32 -9 37 -57 3 -29 9 -67 13 -86 7 -33 6 -34 -17 -27 -13 5
-530 12 -1148 17 -895 6 -1126 11 -1132 21 -5 7 -11 38 -14 68 -3 30 -10 69
-14 87 l-9 32 227 -4 c124 -3 402 -10 616 -16z m1900 -86 c3 -27 8 -65 11 -85
6 -37 5 -38 -26 -38 -30 0 -31 1 -25 34 6 29 4 35 -15 41 -25 8 -37 -4 -47
-47 l-5 -28 -94 0 -94 0 0 85 0 85 144 0 145 0 6 -47z m27 -415 c4 -7 8 -45 8
-84 l0 -72 -287 -6 c-159 -3 -394 -11 -523 -16 -129 -5 -422 -12 -650 -15
-228 -3 -469 -10 -535 -16 -66 -5 -247 -11 -401 -12 l-281 -2 -7 80 c-3 44 -9
90 -12 102 l-6 22 203 5 c112 2 547 8 967 14 419 5 766 13 770 17 4 4 173 5
376 2 285 -5 371 -9 378 -19z m-2770 -73 c4 -27 10 -76 14 -108 l7 -59 -129 3
c-183 5 -1232 -19 -1394 -31 -74 -6 -234 -10 -355 -10 -121 0 -274 -4 -340
-10 -121 -10 -1098 -34 -1425 -35 -96 0 -241 -4 -322 -9 l-147 -9 -5 24 c-16
70 -26 148 -26 195 l0 52 62 6 c80 7 2142 29 2795 30 270 1 495 4 499 9 4 4
177 6 383 5 l376 -3 7 -50z m2801 -428 c3 -34 9 -70 12 -79 5 -13 -3 -17 -52
-22 -119 -11 -341 -25 -438 -27 -55 -1 -136 -5 -180 -9 -44 -5 -138 -11 -210
-14 -71 -3 -152 -8 -180 -11 -27 -2 -135 -9 -240 -15 -104 -6 -253 -15 -330
-20 -77 -5 -185 -12 -240 -15 -313 -18 -702 -44 -756 -51 l-47 -6 -4 103 c-3
57 -4 105 -4 105 4 6 124 14 264 19 92 3 190 8 217 10 28 2 115 7 195 10 80 3
186 8 235 11 50 3 185 9 300 15 116 5 298 13 405 19 107 5 305 14 440 20 134
6 247 13 249 16 2 2 84 4 181 4 l177 0 6 -63z m-2752 -79 c0 -13 4 -60 7 -105
l7 -83 -35 0 c-19 0 -89 -4 -155 -10 -66 -5 -203 -14 -305 -20 -102 -6 -255
-15 -340 -20 -258 -17 -456 -29 -640 -40 -167 -10 -273 -17 -635 -40 -88 -5
-234 -14 -325 -20 -91 -5 -241 -14 -335 -20 -93 -6 -246 -15 -340 -20 -93 -6
-237 -15 -320 -20 -82 -5 -226 -14 -320 -20 -93 -6 -202 -13 -242 -15 l-72 -5
-10 33 c-10 32 -18 213 -9 222 9 9 186 22 488 35 522 23 704 32 1055 50 99 5
248 12 330 15 83 4 166 8 185 10 19 2 113 7 208 10 95 3 180 8 190 9 9 2 130
7 267 12 138 4 252 8 255 9 3 1 82 4 175 8 94 4 204 9 245 12 41 2 127 7 190
10 260 11 355 17 359 21 2 2 31 4 63 4 53 0 58 -2 59 -22z m2793 -340 c14
-116 16 -107 -23 -117 -55 -13 -202 -31 -254 -31 -25 0 -79 -4 -119 -9 -40 -6
-125 -15 -188 -21 -63 -6 -158 -15 -210 -20 -52 -5 -151 -15 -220 -21 -69 -6
-174 -18 -235 -26 -60 -8 -169 -18 -242 -23 -73 -4 -140 -11 -150 -14 -10 -3
-52 -7 -93 -10 -41 -2 -145 -12 -230 -20 -85 -9 -207 -21 -270 -26 -63 -6
-154 -15 -201 -20 -48 -6 -115 -10 -151 -10 l-65 0 -7 61 c-3 34 -6 79 -6 99
l0 37 83 7 c45 3 134 11 197 16 63 6 168 15 233 20 64 6 171 15 237 20 66 6
175 15 243 20 175 15 345 29 477 40 63 5 171 14 240 20 69 5 177 14 240 20
373 33 541 45 652 48 l57 2 5 -42z m-2744 -237 c0 -32 3 -78 6 -103 l6 -45
-123 -12 c-68 -6 -164 -16 -214 -21 -215 -22 -297 -30 -410 -40 -66 -6 -160
-15 -210 -20 -49 -5 -139 -14 -200 -20 -105 -10 -158 -15 -410 -40 -60 -6
-153 -15 -205 -20 -52 -5 -149 -14 -215 -20 -66 -6 -160 -15 -210 -20 -118
-12 -286 -28 -410 -40 -137 -13 -302 -29 -410 -40 -49 -5 -142 -14 -205 -20
-63 -6 -155 -15 -205 -20 -49 -5 -137 -14 -195 -20 -58 -6 -143 -15 -190 -20
-47 -5 -112 -11 -145 -12 l-60 -3 -8 60 c-4 33 -12 89 -17 125 -5 35 -8 65 -7
67 5 4 184 24 312 34 66 5 173 14 238 19 64 6 171 15 237 20 66 6 174 15 240
20 66 6 174 15 240 20 66 6 173 14 238 20 64 5 173 14 242 20 69 6 178 15 243
20 64 6 171 15 237 20 66 6 174 15 240 20 66 6 174 15 240 20 66 6 173 14 238
20 64 5 173 14 242 20 168 14 328 27 485 41 134 11 303 25 343 27 20 2 22 -2
22 -57z m2750 -213 c0 -29 3 -62 6 -74 5 -19 -1 -22 -63 -32 -37 -6 -106 -16
-153 -22 -47 -6 -116 -15 -155 -20 -38 -5 -108 -14 -155 -20 -47 -6 -114 -15
-150 -20 -36 -5 -102 -14 -147 -19 -46 -6 -120 -16 -165 -22 -46 -5 -112 -14
-148 -19 -36 -5 -105 -14 -155 -20 -49 -6 -119 -15 -155 -20 -36 -5 -103 -14
-150 -20 -47 -6 -114 -15 -150 -20 -36 -5 -105 -14 -155 -20 -49 -6 -117 -15
-150 -20 -33 -5 -96 -14 -140 -20 -44 -6 -109 -15 -145 -20 -101 -14 -179 -22
-187 -18 -9 4 -65 169 -59 175 2 2 44 8 92 14 124 14 245 27 339 38 44 6 123
15 175 21 52 6 129 15 170 20 41 5 114 14 163 20 48 5 125 15 172 20 47 6 123
15 170 20 85 10 193 23 335 40 41 5 114 14 163 20 48 5 125 15 172 20 47 6
123 15 170 20 47 6 124 15 173 21 119 15 221 26 255 28 26 1 27 -1 27 -51z
m-2656 -284 c3 -9 6 -22 6 -30 0 -9 12 -40 26 -70 14 -31 24 -57 22 -59 -3 -4
-77 -14 -243 -35 -38 -5 -106 -14 -150 -20 -76 -10 -112 -15 -300 -39 -44 -6
-116 -15 -160 -21 -76 -10 -112 -15 -300 -39 -44 -6 -116 -15 -160 -21 -44 -7
-111 -15 -150 -20 -64 -8 -118 -15 -305 -40 -36 -5 -101 -13 -145 -19 -44 -6
-116 -15 -160 -21 -44 -7 -111 -15 -150 -20 -86 -10 -204 -26 -310 -40 -44 -6
-116 -15 -160 -21 -44 -6 -109 -14 -145 -19 -187 -25 -241 -32 -305 -40 -38
-5 -106 -13 -150 -20 -44 -6 -116 -15 -160 -21 -44 -6 -109 -14 -145 -19 -181
-24 -231 -30 -306 -36 l-80 -7 -22 79 c-30 110 -35 141 -24 148 6 3 52 11 104
16 148 17 257 29 343 40 44 5 119 14 168 20 48 5 125 15 172 20 47 6 124 15
173 20 48 6 121 15 162 20 82 10 193 23 340 40 52 6 129 15 170 20 41 5 114
14 163 20 48 5 125 15 172 20 47 6 124 15 173 20 48 6 121 15 162 20 82 10
193 23 340 40 52 6 129 15 170 20 41 5 114 14 163 20 48 5 125 15 172 20 47 6
123 15 170 20 118 14 246 29 340 41 87 11 232 25 281 28 21 0 34 -5 38 -15z
m2996 -106 c0 -4 -16 -8 -35 -8 -34 0 -35 1 -35 42 l0 42 35 -34 c19 -19 35
-38 35 -42z m-352 -16 c3 -36 0 -42 -20 -46 -79 -16 -132 -26 -203 -36 -44 -6
-102 -15 -130 -20 -27 -4 -84 -13 -125 -20 -41 -6 -100 -15 -130 -20 -55 -9
-255 -41 -380 -61 -36 -5 -90 -14 -120 -19 -30 -5 -86 -14 -125 -20 -38 -6
-95 -15 -125 -20 -30 -5 -85 -14 -122 -20 -38 -5 -98 -15 -135 -20 -38 -6 -94
-15 -125 -20 -32 -6 -85 -14 -118 -20 -33 -5 -86 -14 -117 -20 -50 -8 -123
-19 -223 -35 -19 -3 -37 8 -73 42 -27 25 -46 47 -43 50 2 3 35 9 73 14 37 5
97 14 133 19 36 6 93 15 128 20 34 6 90 14 125 20 34 5 94 14 132 20 39 5 99
15 135 20 36 6 94 15 130 20 36 6 92 14 125 19 101 16 207 32 273 42 34 5 92
14 130 19 37 6 94 15 127 20 64 9 173 26 270 41 33 5 92 14 130 19 39 5 99 14
135 20 36 6 103 15 150 21 47 6 87 13 89 15 13 13 26 -7 29 -44z m572 -161 c0
-4 -17 -11 -37 -14 -21 -4 -74 -13 -118 -22 -89 -16 -154 -20 -139 -7 9 8 62
21 169 41 67 12 125 13 125 2z m-590 -100 c0 -11 -26 -17 -335 -70 -33 -5 -87
-15 -120 -21 -58 -11 -96 -17 -220 -39 -33 -5 -86 -15 -117 -21 -32 -5 -84
-15 -115 -20 -32 -6 -83 -15 -113 -20 -30 -5 -82 -14 -115 -20 -58 -11 -96
-17 -220 -39 -33 -5 -86 -15 -117 -21 -299 -54 -349 -62 -366 -55 -15 6 -14 8
6 16 26 10 191 41 417 78 33 6 87 15 120 21 33 6 85 15 115 20 30 5 80 14 110
19 30 6 109 20 175 31 66 11 143 25 170 30 76 14 283 50 350 61 33 5 83 14
110 19 28 4 81 13 119 19 39 6 72 14 75 16 8 9 71 5 71 -4z m-2372 -111 l44
-49 -39 -6 c-21 -3 -58 -10 -83 -15 -25 -4 -79 -13 -120 -19 -41 -7 -100 -16
-130 -21 -52 -8 -80 -13 -255 -40 -176 -28 -203 -32 -255 -41 -30 -5 -113 -18
-185 -29 -71 -11 -155 -24 -185 -29 -88 -15 -359 -58 -505 -81 -33 -5 -118
-19 -190 -30 -71 -11 -159 -25 -195 -31 -36 -5 -90 -14 -120 -19 -30 -5 -113
-19 -185 -30 -159 -25 -215 -33 -445 -70 -30 -5 -84 -14 -120 -19 -109 -17
-349 -56 -691 -111 -156 -25 -180 -25 -228 0 -36 18 -91 72 -91 89 0 4 39 13
88 19 48 7 110 17 137 22 28 4 86 13 130 20 44 6 105 15 135 20 54 9 109 17
260 40 41 6 103 15 138 20 34 6 91 15 127 20 36 6 94 15 130 20 75 11 158 24
265 40 41 6 100 15 130 20 30 5 91 14 135 20 44 7 103 15 130 20 28 5 86 13
130 20 44 6 105 15 135 20 30 5 88 14 127 20 151 22 205 30 268 40 108 17 186
28 270 40 44 7 103 15 130 20 28 5 86 13 130 20 108 15 199 29 265 40 30 5 91
14 135 20 44 6 105 15 135 20 67 11 158 25 265 40 44 6 87 13 95 15 35 7 47 1
88 -45z m4456 -61 c26 0 28 -2 11 -9 -11 -4 -38 -12 -60 -18 -22 -6 -59 -15
-81 -21 -23 -6 -49 -11 -57 -11 -16 0 -43 37 -34 47 11 10 104 21 146 17 24
-2 58 -4 75 -5z m-479 -99 c17 -19 17 -20 -9 -30 -15 -5 -34 -10 -42 -10 -9 0
-55 -9 -102 -20 -133 -32 -160 -38 -262 -60 -52 -12 -131 -30 -175 -40 -44
-10 -123 -27 -175 -39 -52 -12 -111 -26 -130 -31 -19 -5 -77 -18 -128 -29 -50
-11 -131 -29 -180 -40 -48 -11 -104 -22 -125 -26 -37 -6 -38 -5 -35 22 3 31 4
32 148 63 52 11 134 29 183 40 48 11 126 28 175 39 48 11 129 29 180 40 50 11
134 30 185 41 50 11 133 30 182 41 50 11 113 25 140 31 28 6 61 14 75 19 43
13 76 10 95 -11z m-3650 -84 c17 -16 8 -20 -101 -36 -87 -13 -164 -26 -234
-39 -30 -6 -107 -19 -170 -30 -254 -45 -468 -83 -515 -91 -132 -24 -295 -53
-340 -60 -69 -12 -279 -49 -340 -60 -27 -5 -102 -18 -165 -29 -63 -11 -154
-27 -202 -35 -49 -9 -126 -23 -173 -31 -47 -8 -123 -22 -170 -30 -47 -8 -123
-22 -170 -30 -47 -8 -123 -22 -170 -30 -47 -8 -124 -22 -172 -30 -49 -9 -137
-25 -198 -35 -60 -11 -137 -25 -170 -30 -33 -6 -112 -21 -175 -34 -90 -18
-123 -21 -150 -13 l-35 10 45 14 c42 13 92 22 220 43 30 5 93 16 140 24 47 8
126 22 175 31 50 9 115 20 145 25 30 5 94 16 143 24 48 9 126 23 175 32 48 8
112 19 142 24 30 5 94 16 143 24 249 45 457 81 547 96 30 5 82 14 115 20 33 6
85 15 115 20 30 5 82 14 115 20 33 6 87 16 120 21 118 21 162 28 280 49 66 11
145 25 175 31 30 5 80 14 110 19 61 10 267 46 345 60 28 5 104 19 170 31 66
11 138 25 160 29 22 4 44 8 48 9 5 0 15 -5 22 -13z m3855 -263 c56 -71 258
-531 296 -675 20 -73 15 -90 -19 -68 -61 39 -305 168 -401 211 -266 121 -464
183 -666 209 -137 18 -388 8 -510 -20 -52 -12 -111 -26 -130 -30 -19 -4 -73
-20 -120 -34 -47 -14 -88 -26 -92 -26 -5 0 -8 11 -8 24 0 29 -18 23 405 132
674 173 926 237 1045 269 159 42 173 42 200 8z m-2266 -119 c52 -8 60 -19 19
-27 -16 -4 -80 -17 -143 -31 -63 -13 -158 -34 -210 -46 -52 -12 -111 -26 -130
-30 -19 -4 -78 -18 -130 -30 -52 -12 -111 -26 -130 -30 -19 -4 -118 -27 -220
-50 -102 -23 -201 -46 -220 -50 -19 -4 -78 -18 -130 -30 -98 -23 -126 -29
-220 -50 -91 -20 -121 -27 -220 -50 -91 -21 -138 -32 -280 -63 -36 -8 -108
-25 -160 -37 -52 -12 -122 -28 -155 -35 -33 -8 -132 -30 -220 -51 -88 -20
-176 -40 -195 -44 -19 -4 -118 -27 -220 -50 -102 -23 -203 -46 -225 -51 -22
-5 -58 -14 -80 -19 -22 -6 -98 -23 -168 -38 l-129 -26 -19 24 c-10 14 -19 30
-19 36 0 6 30 18 68 27 55 13 681 152 1022 228 187 41 383 85 490 109 48 11
245 54 388 86 64 14 155 34 202 45 47 10 128 28 180 39 52 11 113 25 135 30
22 6 101 24 175 40 74 16 164 36 200 44 36 8 108 24 160 36 52 12 124 28 160
36 36 8 85 19 110 24 25 6 72 16 105 24 69 15 141 19 209 10z m-6014 -348
c156 -149 278 -231 480 -318 154 -68 174 -75 325 -118 193 -55 187 -51 222
-133 17 -40 66 -148 108 -242 42 -93 82 -183 90 -200 7 -16 29 -70 50 -120 20
-49 43 -104 51 -122 7 -17 14 -34 14 -38 0 -4 7 -21 15 -38 14 -30 32 -80 112
-297 29 -80 121 -353 153 -455 5 -16 21 -73 35 -125 13 -52 36 -135 50 -185
13 -49 25 -96 25 -103 0 -12 -148 106 -270 216 -193 175 -541 409 -721 485
-202 86 -299 107 -502 107 -163 0 -217 -7 -376 -49 l-73 -19 5 86 c3 48 12
191 20 317 26 387 30 724 13 1100 -9 187 -16 357 -16 378 l0 39 43 -33 c23
-18 89 -78 147 -133z"/>
</g>
</svg>
